<?xml version="1.0" encoding="utf-8" standalone="no"?>
<!DOCTYPE svg PUBLIC "-//W3C//DTD SVG 1.1//EN"
  "http://www.w3.org/Graphics/SVG/1.1/DTD/svg11.dtd">
<svg xmlns:xlink="http://www.w3.org/1999/xlink" width="252pt" height="144pt" viewBox="0 0 252 144" xmlns="http://www.w3.org/2000/svg" version="1.1">
 <metadata>
  <rdf:RDF xmlns:dc="http://purl.org/dc/elements/1.1/" xmlns:cc="http://creativecommons.org/ns#" xmlns:rdf="http://www.w3.org/1999/02/22-rdf-syntax-ns#">
   <cc:Work>
    <dc:type rdf:resource="http://purl.org/dc/dcmitype/StillImage"/>
    <dc:date>2025-02-26T10:03:42.138269</dc:date>
    <dc:format>image/svg+xml</dc:format>
    <dc:creator>
     <cc:Agent>
      <dc:title>Matplotlib v3.8.4, https://matplotlib.org/</dc:title>
     </cc:Agent>
    </dc:creator>
   </cc:Work>
  </rdf:RDF>
 </metadata>
 <defs>
  <style type="text/css">*{stroke-linejoin: round; stroke-linecap: butt}</style>
 </defs>
 <g id="figure_1">
  <g id="patch_1">
   <path d="M 0 144 
L 252 144 
L 252 0 
L 0 0 
z
" style="fill: #ffffff"/>
  </g>
  <g id="axes_1">
   <g id="patch_2">
    <path d="M 31.5 128.16 
L 226.8 128.16 
L 226.8 17.28 
L 31.5 17.28 
z
" style="fill: #ffffff"/>
   </g>
   <g id="matplotlib.axis_1">
    <g id="xtick_1">
     <g id="line2d_1">
      <path d="M 40.374596 128.16 
L 40.374596 17.28 
" clip-path="url(#pde7cfe1804)" style="fill: none; stroke: #b0b0b0; stroke-width: 0.8; stroke-linecap: square"/>
     </g>
     <g id="line2d_2">
      <defs>
       <path id="m3c38c8f60b" d="M 0 0 
L 0 3.5 
" style="stroke: #000000; stroke-width: 0.8"/>
      </defs>
      <g>
       <use xlink:href="#m3c38c8f60b" x="40.374596" y="128.16" style="stroke: #000000; stroke-width: 0.8"/>
      </g>
     </g>
     <g id="text_1">
      <!-- 0.6 -->
      <g transform="translate(32.423033 142.758438) scale(0.1 -0.1)">
       <defs>
        <path id="DejaVuSans-30" d="M 2034 4250 
Q 1547 4250 1301 3770 
Q 1056 3291 1056 2328 
Q 1056 1369 1301 889 
Q 1547 409 2034 409 
Q 2525 409 2770 889 
Q 3016 1369 3016 2328 
Q 3016 3291 2770 3770 
Q 2525 4250 2034 4250 
z
M 2034 4750 
Q 2819 4750 3233 4129 
Q 3647 3509 3647 2328 
Q 3647 1150 3233 529 
Q 2819 -91 2034 -91 
Q 1250 -91 836 529 
Q 422 1150 422 2328 
Q 422 3509 836 4129 
Q 1250 4750 2034 4750 
z
" transform="scale(0.015625)"/>
        <path id="DejaVuSans-2e" d="M 684 794 
L 1344 794 
L 1344 0 
L 684 0 
L 684 794 
z
" transform="scale(0.015625)"/>
        <path id="DejaVuSans-36" d="M 2113 2584 
Q 1688 2584 1439 2293 
Q 1191 2003 1191 1497 
Q 1191 994 1439 701 
Q 1688 409 2113 409 
Q 2538 409 2786 701 
Q 3034 994 3034 1497 
Q 3034 2003 2786 2293 
Q 2538 2584 2113 2584 
z
M 3366 4563 
L 3366 3988 
Q 3128 4100 2886 4159 
Q 2644 4219 2406 4219 
Q 1781 4219 1451 3797 
Q 1122 3375 1075 2522 
Q 1259 2794 1537 2939 
Q 1816 3084 2150 3084 
Q 2853 3084 3261 2657 
Q 3669 2231 3669 1497 
Q 3669 778 3244 343 
Q 2819 -91 2113 -91 
Q 1303 -91 875 529 
Q 447 1150 447 2328 
Q 447 3434 972 4092 
Q 1497 4750 2381 4750 
Q 2619 4750 2861 4703 
Q 3103 4656 3366 4563 
z
" transform="scale(0.015625)"/>
       </defs>
       <use xlink:href="#DejaVuSans-30"/>
       <use xlink:href="#DejaVuSans-2e" x="63.623047"/>
       <use xlink:href="#DejaVuSans-36" x="95.410156"/>
      </g>
     </g>
    </g>
    <g id="xtick_2">
     <g id="line2d_3">
      <path d="M 99.861582 128.16 
L 99.861582 17.28 
" clip-path="url(#pde7cfe1804)" style="fill: none; stroke: #b0b0b0; stroke-width: 0.8; stroke-linecap: square"/>
     </g>
     <g id="line2d_4">
      <g>
       <use xlink:href="#m3c38c8f60b" x="99.861582" y="128.16" style="stroke: #000000; stroke-width: 0.8"/>
      </g>
     </g>
     <g id="text_2">
      <!-- 0.8 -->
      <g transform="translate(91.91002 142.758438) scale(0.1 -0.1)">
       <defs>
        <path id="DejaVuSans-38" d="M 2034 2216 
Q 1584 2216 1326 1975 
Q 1069 1734 1069 1313 
Q 1069 891 1326 650 
Q 1584 409 2034 409 
Q 2484 409 2743 651 
Q 3003 894 3003 1313 
Q 3003 1734 2745 1975 
Q 2488 2216 2034 2216 
z
M 1403 2484 
Q 997 2584 770 2862 
Q 544 3141 544 3541 
Q 544 4100 942 4425 
Q 1341 4750 2034 4750 
Q 2731 4750 3128 4425 
Q 3525 4100 3525 3541 
Q 3525 3141 3298 2862 
Q 3072 2584 2669 2484 
Q 3125 2378 3379 2068 
Q 3634 1759 3634 1313 
Q 3634 634 3220 271 
Q 2806 -91 2034 -91 
Q 1263 -91 848 271 
Q 434 634 434 1313 
Q 434 1759 690 2068 
Q 947 2378 1403 2484 
z
M 1172 3481 
Q 1172 3119 1398 2916 
Q 1625 2713 2034 2713 
Q 2441 2713 2670 2916 
Q 2900 3119 2900 3481 
Q 2900 3844 2670 4047 
Q 2441 4250 2034 4250 
Q 1625 4250 1398 4047 
Q 1172 3844 1172 3481 
z
" transform="scale(0.015625)"/>
       </defs>
       <use xlink:href="#DejaVuSans-30"/>
       <use xlink:href="#DejaVuSans-2e" x="63.623047"/>
       <use xlink:href="#DejaVuSans-38" x="95.410156"/>
      </g>
     </g>
    </g>
    <g id="xtick_3">
     <g id="line2d_5">
      <path d="M 159.348569 128.16 
L 159.348569 17.28 
" clip-path="url(#pde7cfe1804)" style="fill: none; stroke: #b0b0b0; stroke-width: 0.8; stroke-linecap: square"/>
     </g>
     <g id="line2d_6">
      <g>
       <use xlink:href="#m3c38c8f60b" x="159.348569" y="128.16" style="stroke: #000000; stroke-width: 0.8"/>
      </g>
     </g>
     <g id="text_3">
      <!-- 1.0 -->
      <g transform="translate(151.397006 142.758438) scale(0.1 -0.1)">
       <defs>
        <path id="DejaVuSans-31" d="M 794 531 
L 1825 531 
L 1825 4091 
L 703 3866 
L 703 4441 
L 1819 4666 
L 2450 4666 
L 2450 531 
L 3481 531 
L 3481 0 
L 794 0 
L 794 531 
z
" transform="scale(0.015625)"/>
       </defs>
       <use xlink:href="#DejaVuSans-31"/>
       <use xlink:href="#DejaVuSans-2e" x="63.623047"/>
       <use xlink:href="#DejaVuSans-30" x="95.410156"/>
      </g>
     </g>
    </g>
    <g id="xtick_4">
     <g id="line2d_7">
      <path d="M 218.835555 128.16 
L 218.835555 17.28 
" clip-path="url(#pde7cfe1804)" style="fill: none; stroke: #b0b0b0; stroke-width: 0.8; stroke-linecap: square"/>
     </g>
     <g id="line2d_8">
      <g>
       <use xlink:href="#m3c38c8f60b" x="218.835555" y="128.16" style="stroke: #000000; stroke-width: 0.8"/>
      </g>
     </g>
     <g id="text_4">
      <!-- 1.2 -->
      <g transform="translate(210.883993 142.758438) scale(0.1 -0.1)">
       <defs>
        <path id="DejaVuSans-32" d="M 1228 531 
L 3431 531 
L 3431 0 
L 469 0 
L 469 531 
Q 828 903 1448 1529 
Q 2069 2156 2228 2338 
Q 2531 2678 2651 2914 
Q 2772 3150 2772 3378 
Q 2772 3750 2511 3984 
Q 2250 4219 1831 4219 
Q 1534 4219 1204 4116 
Q 875 4013 500 3803 
L 500 4441 
Q 881 4594 1212 4672 
Q 1544 4750 1819 4750 
Q 2544 4750 2975 4387 
Q 3406 4025 3406 3419 
Q 3406 3131 3298 2873 
Q 3191 2616 2906 2266 
Q 2828 2175 2409 1742 
Q 1991 1309 1228 531 
z
" transform="scale(0.015625)"/>
       </defs>
       <use xlink:href="#DejaVuSans-31"/>
       <use xlink:href="#DejaVuSans-2e" x="63.623047"/>
       <use xlink:href="#DejaVuSans-32" x="95.410156"/>
      </g>
     </g>
    </g>
   </g>
   <g id="matplotlib.axis_2">
    <g id="ytick_1">
     <g id="line2d_9">
      <path d="M 31.5 96.087792 
L 226.8 96.087792 
" clip-path="url(#pde7cfe1804)" style="fill: none; stroke: #b0b0b0; stroke-width: 0.8; stroke-linecap: square"/>
     </g>
     <g id="line2d_10">
      <defs>
       <path id="md92d8a02ed" d="M 0 0 
L -3.5 0 
" style="stroke: #000000; stroke-width: 0.8"/>
      </defs>
      <g>
       <use xlink:href="#md92d8a02ed" x="31.5" y="96.087792" style="stroke: #000000; stroke-width: 0.8"/>
      </g>
     </g>
     <g id="text_5">
      <!-- 0.98 -->
      <g transform="translate(2.234375 99.887011) scale(0.1 -0.1)">
       <defs>
        <path id="DejaVuSans-39" d="M 703 97 
L 703 672 
Q 941 559 1184 500 
Q 1428 441 1663 441 
Q 2288 441 2617 861 
Q 2947 1281 2994 2138 
Q 2813 1869 2534 1725 
Q 2256 1581 1919 1581 
Q 1219 1581 811 2004 
Q 403 2428 403 3163 
Q 403 3881 828 4315 
Q 1253 4750 1959 4750 
Q 2769 4750 3195 4129 
Q 3622 3509 3622 2328 
Q 3622 1225 3098 567 
Q 2575 -91 1691 -91 
Q 1453 -91 1209 -44 
Q 966 3 703 97 
z
M 1959 2075 
Q 2384 2075 2632 2365 
Q 2881 2656 2881 3163 
Q 2881 3666 2632 3958 
Q 2384 4250 1959 4250 
Q 1534 4250 1286 3958 
Q 1038 3666 1038 3163 
Q 1038 2656 1286 2365 
Q 1534 2075 1959 2075 
z
" transform="scale(0.015625)"/>
       </defs>
       <use xlink:href="#DejaVuSans-30"/>
       <use xlink:href="#DejaVuSans-2e" x="63.623047"/>
       <use xlink:href="#DejaVuSans-39" x="95.410156"/>
       <use xlink:href="#DejaVuSans-38" x="159.033203"/>
      </g>
     </g>
    </g>
    <g id="ytick_2">
     <g id="line2d_11">
      <path d="M 31.5 59.203896 
L 226.8 59.203896 
" clip-path="url(#pde7cfe1804)" style="fill: none; stroke: #b0b0b0; stroke-width: 0.8; stroke-linecap: square"/>
     </g>
     <g id="line2d_12">
      <g>
       <use xlink:href="#md92d8a02ed" x="31.5" y="59.203896" style="stroke: #000000; stroke-width: 0.8"/>
      </g>
     </g>
     <g id="text_6">
      <!-- 0.99 -->
      <g transform="translate(2.234375 63.003115) scale(0.1 -0.1)">
       <use xlink:href="#DejaVuSans-30"/>
       <use xlink:href="#DejaVuSans-2e" x="63.623047"/>
       <use xlink:href="#DejaVuSans-39" x="95.410156"/>
       <use xlink:href="#DejaVuSans-39" x="159.033203"/>
      </g>
     </g>
    </g>
    <g id="ytick_3">
     <g id="line2d_13">
      <path d="M 31.5 22.32 
L 226.8 22.32 
" clip-path="url(#pde7cfe1804)" style="fill: none; stroke: #b0b0b0; stroke-width: 0.8; stroke-linecap: square"/>
     </g>
     <g id="line2d_14">
      <g>
       <use xlink:href="#md92d8a02ed" x="31.5" y="22.32" style="stroke: #000000; stroke-width: 0.8"/>
      </g>
     </g>
     <g id="text_7">
      <!-- 1.00 -->
      <g transform="translate(2.234375 26.119219) scale(0.1 -0.1)">
       <use xlink:href="#DejaVuSans-31"/>
       <use xlink:href="#DejaVuSans-2e" x="63.623047"/>
       <use xlink:href="#DejaVuSans-30" x="95.410156"/>
       <use xlink:href="#DejaVuSans-30" x="159.033203"/>
      </g>
     </g>
    </g>
   </g>
   <g id="line2d_15">
    <path d="M 40.382924 123.12 
L 41.329957 117.886175 
L 41.375167 117.639053 
L 41.483136 117.041534 
L 42.375441 112.807263 
L 42.552117 112.316707 
L 42.679717 111.789267 
L 43.932215 108.119319 
L 44.069927 107.573438 
L 44.169568 107.171403 
L 45.598148 99.215547 
L 45.988978 96.545153 
L 46.243284 94.804233 
L 46.478853 92.805126 
L 46.615078 92.012122 
L 46.832503 90.326528 
L 46.889611 90.04621 
L 47.186748 87.936451 
L 47.252481 87.482779 
L 47.415773 86.12914 
L 47.800654 83.809143 
L 47.919628 82.879669 
L 48.072807 81.964949 
L 48.256622 80.63344 
L 48.475236 79.64864 
L 48.774753 77.944604 
L 48.914548 77.328643 
L 49.422269 74.484894 
L 49.490084 74.256214 
L 49.700668 73.359936 
L 50.103692 72.024739 
L 50.2188 71.762863 
L 50.314276 71.515741 
L 50.459425 71.113706 
L 50.703619 70.497745 
L 51.119135 69.214186 
L 51.183381 69.092469 
L 51.610498 67.915873 
L 51.855882 67.355237 
L 51.986158 67.126557 
L 52.579243 66.174953 
L 52.858535 66.001598 
L 53.23241 65.702839 
L 53.372502 65.581122 
L 53.799619 65.282362 
L 54.312992 64.843444 
L 54.807031 64.507801 
L 55.526824 63.928723 
L 56.14995 63.59308 
L 56.295693 63.471363 
L 56.616923 63.191045 
L 56.73084 63.102524 
L 57.82778 62.416484 
L 58.163882 62.224687 
L 58.45626 61.977565 
L 58.702834 61.837406 
L 58.704618 61.822653 
L 58.945838 61.678806 
L 59.079981 61.575531 
L 59.256955 61.41693 
L 59.560041 61.239887 
L 60.039209 60.856295 
L 60.159075 60.767773 
L 62.077233 59.255534 
L 62.64117 59.045295 
L 62.700954 59.0121 
L 62.998984 58.853499 
L 63.305937 58.676457 
L 63.584038 58.503102 
L 64.092652 58.344501 
L 64.313646 58.25598 
L 65.207736 58.0273 
L 66.299322 57.710098 
L 67.211852 57.49986 
L 67.772517 57.060942 
L 67.879594 56.902341 
L 68.019388 56.728987 
L 68.788555 52.177514 
L 69.96729 41.289388 
L 70.064253 40.850469 
L 70.174304 40.216066 
L 70.219217 40.061154 
L 70.345032 39.79559 
L 70.440806 39.636989 
L 70.839666 39.057912 
L 71.881283 37.969837 
L 72.128154 37.774353 
L 72.572522 37.353876 
L 72.799762 37.16208 
L 72.919629 37.055117 
L 73.654293 36.018679 
L 73.768805 35.826883 
L 73.895513 35.616645 
L 74.620362 34.473244 
L 74.894597 34.314643 
L 76.484981 33.562212 
L 76.915964 33.403611 
L 76.923995 33.385169 
L 77.481686 33.226568 
L 78.708902 32.806092 
L 79.084562 32.665933 
L 84.618042 31.629495 
L 86.175709 31.363931 
L 86.580815 31.293852 
L 87.896965 31.083614 
L 89.030787 30.733217 
L 90.046229 30.574616 
L 90.141111 30.556174 
L 92.056592 30.416015 
L 92.598519 30.275856 
L 98.301536 29.589816 
L 103.286248 29.066065 
L 103.399273 28.995985 
L 105.223144 28.818943 
L 105.638363 28.711979 
L 106.940534 28.57182 
L 110.189713 28.291503 
L 113.534963 27.941106 
L 117.502448 27.605462 
L 118.569347 27.502187 
L 121.727214 27.273507 
L 123.892243 27.078023 
L 124.211093 27.026385 
L 126.571239 26.853031 
L 126.596521 26.834589 
L 128.898667 26.624351 
L 129.1616 26.587467 
L 138.909732 26.078469 
L 139.25208 26.026832 
L 147.748606 25.70963 
L 159.660875 25.060473 
L 165.894814 24.813351 
L 168.717769 24.72483 
L 181.907819 24.462954 
L 182.988994 24.374433 
L 188.658402 24.215832 
L 188.668515 24.201079 
L 197.316138 24.005594 
L 201.881764 23.935515 
L 217.922727 23.758472 
L 217.922727 23.758472 
" clip-path="url(#pde7cfe1804)" style="fill: none; stroke: #ff0000; stroke-width: 3; stroke-linecap: square"/>
   </g>
   <g id="line2d_16">
    <path d="M 40.377273 39.33823 
L 40.538482 39.157499 
L 41.072081 38.921442 
L 41.327875 38.740711 
L 41.632151 38.589487 
L 42.05778 38.35343 
L 42.791255 38.0768 
L 42.991428 37.966149 
L 43.433119 37.730092 
L 43.54555 37.634194 
L 44.144881 37.357564 
L 44.292706 37.176833 
L 44.700787 36.981349 
L 45.439615 36.512923 
L 45.559482 36.402272 
L 45.834906 36.236294 
L 45.906886 36.180968 
L 46.147213 36.040809 
L 46.264105 35.959665 
L 47.343794 35.417472 
L 48.002612 34.587584 
L 48.126345 34.421606 
L 49.475807 33.204438 
L 50.440984 32.913055 
L 50.752398 32.732324 
L 51.109617 32.592165 
L 52.025717 32.204884 
L 52.448669 32.05366 
L 53.17798 31.817603 
L 53.197611 31.791785 
L 53.461733 31.666379 
L 53.650901 31.515155 
L 53.794563 31.445076 
L 54.102408 31.279098 
L 54.2193 31.209019 
L 54.430478 31.13894 
L 54.823093 30.917636 
L 54.934333 30.86231 
L 55.409039 30.626253 
L 55.935499 30.449211 
L 56.064288 30.393885 
L 58.636208 29.047623 
L 59.726307 28.011185 
L 60.314634 27.775128 
L 60.515105 27.67923 
L 61.034129 27.539071 
L 62.707498 26.959994 
L 62.799703 26.889915 
L 66.157743 25.724384 
L 67.949193 25.421936 
L 68.196659 25.215386 
L 69.759977 25.019901 
L 70.49137 24.894496 
L 70.695708 24.824417 
L 71.59991 24.673193 
L 72.419343 24.562541 
L 73.743821 24.370745 
L 73.884508 24.341238 
L 74.299132 24.315419 
L 76.18249 24.119934 
L 76.592653 24.064608 
L 80.498568 23.828551 
L 92.061351 23.194148 
L 96.814956 23.05399 
L 97.806902 23.013417 
L 114.371053 22.707281 
L 115.819561 22.637202 
L 159.295923 22.32 
L 159.295923 22.32 
" clip-path="url(#pde7cfe1804)" style="fill: none; stroke: #0000ff; stroke-width: 3; stroke-linecap: square"/>
   </g>
   <g id="patch_3">
    <path d="M 31.5 128.16 
L 31.5 17.28 
" style="fill: none; stroke: #000000; stroke-width: 0.8; stroke-linejoin: miter; stroke-linecap: square"/>
   </g>
   <g id="patch_4">
    <path d="M 226.8 128.16 
L 226.8 17.28 
" style="fill: none; stroke: #000000; stroke-width: 0.8; stroke-linejoin: miter; stroke-linecap: square"/>
   </g>
   <g id="patch_5">
    <path d="M 31.5 128.16 
L 226.8 128.16 
" style="fill: none; stroke: #000000; stroke-width: 0.8; stroke-linejoin: miter; stroke-linecap: square"/>
   </g>
   <g id="patch_6">
    <path d="M 31.5 17.28 
L 226.8 17.28 
" style="fill: none; stroke: #000000; stroke-width: 0.8; stroke-linejoin: miter; stroke-linecap: square"/>
   </g>
  </g>
 </g>
 <defs>
  <clipPath id="pde7cfe1804">
   <rect x="31.5" y="17.28" width="195.3" height="110.88"/>
  </clipPath>
 </defs>
</svg>
