<?xml version="1.0" encoding="utf-8" standalone="no"?>
<!DOCTYPE svg PUBLIC "-//W3C//DTD SVG 1.1//EN"
  "http://www.w3.org/Graphics/SVG/1.1/DTD/svg11.dtd">
<svg xmlns:xlink="http://www.w3.org/1999/xlink" width="432pt" height="288pt" viewBox="0 0 432 288" xmlns="http://www.w3.org/2000/svg" version="1.1">
 <metadata>
  <rdf:RDF xmlns:dc="http://purl.org/dc/elements/1.1/" xmlns:cc="http://creativecommons.org/ns#" xmlns:rdf="http://www.w3.org/1999/02/22-rdf-syntax-ns#">
   <cc:Work>
    <dc:type rdf:resource="http://purl.org/dc/dcmitype/StillImage"/>
    <dc:date>2025-02-26T12:58:57.797177</dc:date>
    <dc:format>image/svg+xml</dc:format>
    <dc:creator>
     <cc:Agent>
      <dc:title>Matplotlib v3.8.4, https://matplotlib.org/</dc:title>
     </cc:Agent>
    </dc:creator>
   </cc:Work>
  </rdf:RDF>
 </metadata>
 <defs>
  <style type="text/css">*{stroke-linejoin: round; stroke-linecap: butt}</style>
 </defs>
 <g id="figure_1">
  <g id="patch_1">
   <path d="M 0 288 
L 432 288 
L 432 0 
L 0 0 
z
" style="fill: #ffffff"/>
  </g>
  <g id="axes_1">
   <g id="patch_2">
    <path d="M 51.32 242.44 
L 421.2 242.44 
L 421.2 10.8 
L 51.32 10.8 
z
" style="fill: #ffffff"/>
   </g>
   <g id="matplotlib.axis_1">
    <g id="xtick_1">
     <g id="line2d_1">
      <path d="M 67.910665 242.44 
L 67.910665 10.8 
" clip-path="url(#pc545fc796a)" style="fill: none; stroke: #b0b0b0; stroke-width: 0.8; stroke-linecap: square"/>
     </g>
     <g id="line2d_2">
      <defs>
       <path id="m6b954a9b68" d="M 0 0 
L 0 3.5 
" style="stroke: #000000; stroke-width: 0.8"/>
      </defs>
      <g>
       <use xlink:href="#m6b954a9b68" x="67.910665" y="242.44" style="stroke: #000000; stroke-width: 0.8"/>
      </g>
     </g>
     <g id="text_1">
      <!-- 0.0 -->
      <g transform="translate(59.959102 257.038437) scale(0.1 -0.1)">
       <defs>
        <path id="DejaVuSans-30" d="M 2034 4250 
Q 1547 4250 1301 3770 
Q 1056 3291 1056 2328 
Q 1056 1369 1301 889 
Q 1547 409 2034 409 
Q 2525 409 2770 889 
Q 3016 1369 3016 2328 
Q 3016 3291 2770 3770 
Q 2525 4250 2034 4250 
z
M 2034 4750 
Q 2819 4750 3233 4129 
Q 3647 3509 3647 2328 
Q 3647 1150 3233 529 
Q 2819 -91 2034 -91 
Q 1250 -91 836 529 
Q 422 1150 422 2328 
Q 422 3509 836 4129 
Q 1250 4750 2034 4750 
z
" transform="scale(0.015625)"/>
        <path id="DejaVuSans-2e" d="M 684 794 
L 1344 794 
L 1344 0 
L 684 0 
L 684 794 
z
" transform="scale(0.015625)"/>
       </defs>
       <use xlink:href="#DejaVuSans-30"/>
       <use xlink:href="#DejaVuSans-2e" x="63.623047"/>
       <use xlink:href="#DejaVuSans-30" x="95.410156"/>
      </g>
     </g>
    </g>
    <g id="xtick_2">
     <g id="line2d_3">
      <path d="M 141.931521 242.44 
L 141.931521 10.8 
" clip-path="url(#pc545fc796a)" style="fill: none; stroke: #b0b0b0; stroke-width: 0.8; stroke-linecap: square"/>
     </g>
     <g id="line2d_4">
      <g>
       <use xlink:href="#m6b954a9b68" x="141.931521" y="242.44" style="stroke: #000000; stroke-width: 0.8"/>
      </g>
     </g>
     <g id="text_2">
      <!-- 0.5 -->
      <g transform="translate(133.979959 257.038437) scale(0.1 -0.1)">
       <defs>
        <path id="DejaVuSans-35" d="M 691 4666 
L 3169 4666 
L 3169 4134 
L 1269 4134 
L 1269 2991 
Q 1406 3038 1543 3061 
Q 1681 3084 1819 3084 
Q 2600 3084 3056 2656 
Q 3513 2228 3513 1497 
Q 3513 744 3044 326 
Q 2575 -91 1722 -91 
Q 1428 -91 1123 -41 
Q 819 9 494 109 
L 494 744 
Q 775 591 1075 516 
Q 1375 441 1709 441 
Q 2250 441 2565 725 
Q 2881 1009 2881 1497 
Q 2881 1984 2565 2268 
Q 2250 2553 1709 2553 
Q 1456 2553 1204 2497 
Q 953 2441 691 2322 
L 691 4666 
z
" transform="scale(0.015625)"/>
       </defs>
       <use xlink:href="#DejaVuSans-30"/>
       <use xlink:href="#DejaVuSans-2e" x="63.623047"/>
       <use xlink:href="#DejaVuSans-35" x="95.410156"/>
      </g>
     </g>
    </g>
    <g id="xtick_3">
     <g id="line2d_5">
      <path d="M 215.952378 242.44 
L 215.952378 10.8 
" clip-path="url(#pc545fc796a)" style="fill: none; stroke: #b0b0b0; stroke-width: 0.8; stroke-linecap: square"/>
     </g>
     <g id="line2d_6">
      <g>
       <use xlink:href="#m6b954a9b68" x="215.952378" y="242.44" style="stroke: #000000; stroke-width: 0.8"/>
      </g>
     </g>
     <g id="text_3">
      <!-- 1.0 -->
      <g transform="translate(208.000815 257.038437) scale(0.1 -0.1)">
       <defs>
        <path id="DejaVuSans-31" d="M 794 531 
L 1825 531 
L 1825 4091 
L 703 3866 
L 703 4441 
L 1819 4666 
L 2450 4666 
L 2450 531 
L 3481 531 
L 3481 0 
L 794 0 
L 794 531 
z
" transform="scale(0.015625)"/>
       </defs>
       <use xlink:href="#DejaVuSans-31"/>
       <use xlink:href="#DejaVuSans-2e" x="63.623047"/>
       <use xlink:href="#DejaVuSans-30" x="95.410156"/>
      </g>
     </g>
    </g>
    <g id="xtick_4">
     <g id="line2d_7">
      <path d="M 289.973235 242.44 
L 289.973235 10.8 
" clip-path="url(#pc545fc796a)" style="fill: none; stroke: #b0b0b0; stroke-width: 0.8; stroke-linecap: square"/>
     </g>
     <g id="line2d_8">
      <g>
       <use xlink:href="#m6b954a9b68" x="289.973235" y="242.44" style="stroke: #000000; stroke-width: 0.8"/>
      </g>
     </g>
     <g id="text_4">
      <!-- 1.5 -->
      <g transform="translate(282.021672 257.038437) scale(0.1 -0.1)">
       <use xlink:href="#DejaVuSans-31"/>
       <use xlink:href="#DejaVuSans-2e" x="63.623047"/>
       <use xlink:href="#DejaVuSans-35" x="95.410156"/>
      </g>
     </g>
    </g>
    <g id="xtick_5">
     <g id="line2d_9">
      <path d="M 363.994091 242.44 
L 363.994091 10.8 
" clip-path="url(#pc545fc796a)" style="fill: none; stroke: #b0b0b0; stroke-width: 0.8; stroke-linecap: square"/>
     </g>
     <g id="line2d_10">
      <g>
       <use xlink:href="#m6b954a9b68" x="363.994091" y="242.44" style="stroke: #000000; stroke-width: 0.8"/>
      </g>
     </g>
     <g id="text_5">
      <!-- 2.0 -->
      <g transform="translate(356.042529 257.038437) scale(0.1 -0.1)">
       <defs>
        <path id="DejaVuSans-32" d="M 1228 531 
L 3431 531 
L 3431 0 
L 469 0 
L 469 531 
Q 828 903 1448 1529 
Q 2069 2156 2228 2338 
Q 2531 2678 2651 2914 
Q 2772 3150 2772 3378 
Q 2772 3750 2511 3984 
Q 2250 4219 1831 4219 
Q 1534 4219 1204 4116 
Q 875 4013 500 3803 
L 500 4441 
Q 881 4594 1212 4672 
Q 1544 4750 1819 4750 
Q 2544 4750 2975 4387 
Q 3406 4025 3406 3419 
Q 3406 3131 3298 2873 
Q 3191 2616 2906 2266 
Q 2828 2175 2409 1742 
Q 1991 1309 1228 531 
z
" transform="scale(0.015625)"/>
       </defs>
       <use xlink:href="#DejaVuSans-32"/>
       <use xlink:href="#DejaVuSans-2e" x="63.623047"/>
       <use xlink:href="#DejaVuSans-30" x="95.410156"/>
      </g>
     </g>
    </g>
    <g id="text_6">
     <!-- Normalised response time -->
     <g transform="translate(144.534844 273.755938) scale(0.14 -0.14)">
      <defs>
       <path id="DejaVuSans-4e" d="M 628 4666 
L 1478 4666 
L 3547 763 
L 3547 4666 
L 4159 4666 
L 4159 0 
L 3309 0 
L 1241 3903 
L 1241 0 
L 628 0 
L 628 4666 
z
" transform="scale(0.015625)"/>
       <path id="DejaVuSans-6f" d="M 1959 3097 
Q 1497 3097 1228 2736 
Q 959 2375 959 1747 
Q 959 1119 1226 758 
Q 1494 397 1959 397 
Q 2419 397 2687 759 
Q 2956 1122 2956 1747 
Q 2956 2369 2687 2733 
Q 2419 3097 1959 3097 
z
M 1959 3584 
Q 2709 3584 3137 3096 
Q 3566 2609 3566 1747 
Q 3566 888 3137 398 
Q 2709 -91 1959 -91 
Q 1206 -91 779 398 
Q 353 888 353 1747 
Q 353 2609 779 3096 
Q 1206 3584 1959 3584 
z
" transform="scale(0.015625)"/>
       <path id="DejaVuSans-72" d="M 2631 2963 
Q 2534 3019 2420 3045 
Q 2306 3072 2169 3072 
Q 1681 3072 1420 2755 
Q 1159 2438 1159 1844 
L 1159 0 
L 581 0 
L 581 3500 
L 1159 3500 
L 1159 2956 
Q 1341 3275 1631 3429 
Q 1922 3584 2338 3584 
Q 2397 3584 2469 3576 
Q 2541 3569 2628 3553 
L 2631 2963 
z
" transform="scale(0.015625)"/>
       <path id="DejaVuSans-6d" d="M 3328 2828 
Q 3544 3216 3844 3400 
Q 4144 3584 4550 3584 
Q 5097 3584 5394 3201 
Q 5691 2819 5691 2113 
L 5691 0 
L 5113 0 
L 5113 2094 
Q 5113 2597 4934 2840 
Q 4756 3084 4391 3084 
Q 3944 3084 3684 2787 
Q 3425 2491 3425 1978 
L 3425 0 
L 2847 0 
L 2847 2094 
Q 2847 2600 2669 2842 
Q 2491 3084 2119 3084 
Q 1678 3084 1418 2786 
Q 1159 2488 1159 1978 
L 1159 0 
L 581 0 
L 581 3500 
L 1159 3500 
L 1159 2956 
Q 1356 3278 1631 3431 
Q 1906 3584 2284 3584 
Q 2666 3584 2933 3390 
Q 3200 3197 3328 2828 
z
" transform="scale(0.015625)"/>
       <path id="DejaVuSans-61" d="M 2194 1759 
Q 1497 1759 1228 1600 
Q 959 1441 959 1056 
Q 959 750 1161 570 
Q 1363 391 1709 391 
Q 2188 391 2477 730 
Q 2766 1069 2766 1631 
L 2766 1759 
L 2194 1759 
z
M 3341 1997 
L 3341 0 
L 2766 0 
L 2766 531 
Q 2569 213 2275 61 
Q 1981 -91 1556 -91 
Q 1019 -91 701 211 
Q 384 513 384 1019 
Q 384 1609 779 1909 
Q 1175 2209 1959 2209 
L 2766 2209 
L 2766 2266 
Q 2766 2663 2505 2880 
Q 2244 3097 1772 3097 
Q 1472 3097 1187 3025 
Q 903 2953 641 2809 
L 641 3341 
Q 956 3463 1253 3523 
Q 1550 3584 1831 3584 
Q 2591 3584 2966 3190 
Q 3341 2797 3341 1997 
z
" transform="scale(0.015625)"/>
       <path id="DejaVuSans-6c" d="M 603 4863 
L 1178 4863 
L 1178 0 
L 603 0 
L 603 4863 
z
" transform="scale(0.015625)"/>
       <path id="DejaVuSans-69" d="M 603 3500 
L 1178 3500 
L 1178 0 
L 603 0 
L 603 3500 
z
M 603 4863 
L 1178 4863 
L 1178 4134 
L 603 4134 
L 603 4863 
z
" transform="scale(0.015625)"/>
       <path id="DejaVuSans-73" d="M 2834 3397 
L 2834 2853 
Q 2591 2978 2328 3040 
Q 2066 3103 1784 3103 
Q 1356 3103 1142 2972 
Q 928 2841 928 2578 
Q 928 2378 1081 2264 
Q 1234 2150 1697 2047 
L 1894 2003 
Q 2506 1872 2764 1633 
Q 3022 1394 3022 966 
Q 3022 478 2636 193 
Q 2250 -91 1575 -91 
Q 1294 -91 989 -36 
Q 684 19 347 128 
L 347 722 
Q 666 556 975 473 
Q 1284 391 1588 391 
Q 1994 391 2212 530 
Q 2431 669 2431 922 
Q 2431 1156 2273 1281 
Q 2116 1406 1581 1522 
L 1381 1569 
Q 847 1681 609 1914 
Q 372 2147 372 2553 
Q 372 3047 722 3315 
Q 1072 3584 1716 3584 
Q 2034 3584 2315 3537 
Q 2597 3491 2834 3397 
z
" transform="scale(0.015625)"/>
       <path id="DejaVuSans-65" d="M 3597 1894 
L 3597 1613 
L 953 1613 
Q 991 1019 1311 708 
Q 1631 397 2203 397 
Q 2534 397 2845 478 
Q 3156 559 3463 722 
L 3463 178 
Q 3153 47 2828 -22 
Q 2503 -91 2169 -91 
Q 1331 -91 842 396 
Q 353 884 353 1716 
Q 353 2575 817 3079 
Q 1281 3584 2069 3584 
Q 2775 3584 3186 3129 
Q 3597 2675 3597 1894 
z
M 3022 2063 
Q 3016 2534 2758 2815 
Q 2500 3097 2075 3097 
Q 1594 3097 1305 2825 
Q 1016 2553 972 2059 
L 3022 2063 
z
" transform="scale(0.015625)"/>
       <path id="DejaVuSans-64" d="M 2906 2969 
L 2906 4863 
L 3481 4863 
L 3481 0 
L 2906 0 
L 2906 525 
Q 2725 213 2448 61 
Q 2172 -91 1784 -91 
Q 1150 -91 751 415 
Q 353 922 353 1747 
Q 353 2572 751 3078 
Q 1150 3584 1784 3584 
Q 2172 3584 2448 3432 
Q 2725 3281 2906 2969 
z
M 947 1747 
Q 947 1113 1208 752 
Q 1469 391 1925 391 
Q 2381 391 2643 752 
Q 2906 1113 2906 1747 
Q 2906 2381 2643 2742 
Q 2381 3103 1925 3103 
Q 1469 3103 1208 2742 
Q 947 2381 947 1747 
z
" transform="scale(0.015625)"/>
       <path id="DejaVuSans-20" transform="scale(0.015625)"/>
       <path id="DejaVuSans-70" d="M 1159 525 
L 1159 -1331 
L 581 -1331 
L 581 3500 
L 1159 3500 
L 1159 2969 
Q 1341 3281 1617 3432 
Q 1894 3584 2278 3584 
Q 2916 3584 3314 3078 
Q 3713 2572 3713 1747 
Q 3713 922 3314 415 
Q 2916 -91 2278 -91 
Q 1894 -91 1617 61 
Q 1341 213 1159 525 
z
M 3116 1747 
Q 3116 2381 2855 2742 
Q 2594 3103 2138 3103 
Q 1681 3103 1420 2742 
Q 1159 2381 1159 1747 
Q 1159 1113 1420 752 
Q 1681 391 2138 391 
Q 2594 391 2855 752 
Q 3116 1113 3116 1747 
z
" transform="scale(0.015625)"/>
       <path id="DejaVuSans-6e" d="M 3513 2113 
L 3513 0 
L 2938 0 
L 2938 2094 
Q 2938 2591 2744 2837 
Q 2550 3084 2163 3084 
Q 1697 3084 1428 2787 
Q 1159 2491 1159 1978 
L 1159 0 
L 581 0 
L 581 3500 
L 1159 3500 
L 1159 2956 
Q 1366 3272 1645 3428 
Q 1925 3584 2291 3584 
Q 2894 3584 3203 3211 
Q 3513 2838 3513 2113 
z
" transform="scale(0.015625)"/>
       <path id="DejaVuSans-74" d="M 1172 4494 
L 1172 3500 
L 2356 3500 
L 2356 3053 
L 1172 3053 
L 1172 1153 
Q 1172 725 1289 603 
Q 1406 481 1766 481 
L 2356 481 
L 2356 0 
L 1766 0 
Q 1100 0 847 248 
Q 594 497 594 1153 
L 594 3053 
L 172 3053 
L 172 3500 
L 594 3500 
L 594 4494 
L 1172 4494 
z
" transform="scale(0.015625)"/>
      </defs>
      <use xlink:href="#DejaVuSans-4e"/>
      <use xlink:href="#DejaVuSans-6f" x="74.804688"/>
      <use xlink:href="#DejaVuSans-72" x="135.986328"/>
      <use xlink:href="#DejaVuSans-6d" x="175.349609"/>
      <use xlink:href="#DejaVuSans-61" x="272.761719"/>
      <use xlink:href="#DejaVuSans-6c" x="334.041016"/>
      <use xlink:href="#DejaVuSans-69" x="361.824219"/>
      <use xlink:href="#DejaVuSans-73" x="389.607422"/>
      <use xlink:href="#DejaVuSans-65" x="441.707031"/>
      <use xlink:href="#DejaVuSans-64" x="503.230469"/>
      <use xlink:href="#DejaVuSans-20" x="566.707031"/>
      <use xlink:href="#DejaVuSans-72" x="598.494141"/>
      <use xlink:href="#DejaVuSans-65" x="637.357422"/>
      <use xlink:href="#DejaVuSans-73" x="698.880859"/>
      <use xlink:href="#DejaVuSans-70" x="750.980469"/>
      <use xlink:href="#DejaVuSans-6f" x="814.457031"/>
      <use xlink:href="#DejaVuSans-6e" x="875.638672"/>
      <use xlink:href="#DejaVuSans-73" x="939.017578"/>
      <use xlink:href="#DejaVuSans-65" x="991.117188"/>
      <use xlink:href="#DejaVuSans-20" x="1052.640625"/>
      <use xlink:href="#DejaVuSans-74" x="1084.427734"/>
      <use xlink:href="#DejaVuSans-69" x="1123.636719"/>
      <use xlink:href="#DejaVuSans-6d" x="1151.419922"/>
      <use xlink:href="#DejaVuSans-65" x="1248.832031"/>
     </g>
    </g>
   </g>
   <g id="matplotlib.axis_2">
    <g id="ytick_1">
     <g id="line2d_11">
      <path d="M 51.32 231.911962 
L 421.2 231.911962 
" clip-path="url(#pc545fc796a)" style="fill: none; stroke: #b0b0b0; stroke-width: 0.8; stroke-linecap: square"/>
     </g>
     <g id="line2d_12">
      <defs>
       <path id="mc751034a91" d="M 0 0 
L -3.5 0 
" style="stroke: #000000; stroke-width: 0.8"/>
      </defs>
      <g>
       <use xlink:href="#mc751034a91" x="51.32" y="231.911962" style="stroke: #000000; stroke-width: 0.8"/>
      </g>
     </g>
     <g id="text_7">
      <!-- 0.0 -->
      <g transform="translate(28.416875 235.711181) scale(0.1 -0.1)">
       <use xlink:href="#DejaVuSans-30"/>
       <use xlink:href="#DejaVuSans-2e" x="63.623047"/>
       <use xlink:href="#DejaVuSans-30" x="95.410156"/>
      </g>
     </g>
    </g>
    <g id="ytick_2">
     <g id="line2d_13">
      <path d="M 51.32 189.795388 
L 421.2 189.795388 
" clip-path="url(#pc545fc796a)" style="fill: none; stroke: #b0b0b0; stroke-width: 0.8; stroke-linecap: square"/>
     </g>
     <g id="line2d_14">
      <g>
       <use xlink:href="#mc751034a91" x="51.32" y="189.795388" style="stroke: #000000; stroke-width: 0.8"/>
      </g>
     </g>
     <g id="text_8">
      <!-- 0.2 -->
      <g transform="translate(28.416875 193.594607) scale(0.1 -0.1)">
       <use xlink:href="#DejaVuSans-30"/>
       <use xlink:href="#DejaVuSans-2e" x="63.623047"/>
       <use xlink:href="#DejaVuSans-32" x="95.410156"/>
      </g>
     </g>
    </g>
    <g id="ytick_3">
     <g id="line2d_15">
      <path d="M 51.32 147.678814 
L 421.2 147.678814 
" clip-path="url(#pc545fc796a)" style="fill: none; stroke: #b0b0b0; stroke-width: 0.8; stroke-linecap: square"/>
     </g>
     <g id="line2d_16">
      <g>
       <use xlink:href="#mc751034a91" x="51.32" y="147.678814" style="stroke: #000000; stroke-width: 0.8"/>
      </g>
     </g>
     <g id="text_9">
      <!-- 0.4 -->
      <g transform="translate(28.416875 151.478032) scale(0.1 -0.1)">
       <defs>
        <path id="DejaVuSans-34" d="M 2419 4116 
L 825 1625 
L 2419 1625 
L 2419 4116 
z
M 2253 4666 
L 3047 4666 
L 3047 1625 
L 3713 1625 
L 3713 1100 
L 3047 1100 
L 3047 0 
L 2419 0 
L 2419 1100 
L 313 1100 
L 313 1709 
L 2253 4666 
z
" transform="scale(0.015625)"/>
       </defs>
       <use xlink:href="#DejaVuSans-30"/>
       <use xlink:href="#DejaVuSans-2e" x="63.623047"/>
       <use xlink:href="#DejaVuSans-34" x="95.410156"/>
      </g>
     </g>
    </g>
    <g id="ytick_4">
     <g id="line2d_17">
      <path d="M 51.32 105.562239 
L 421.2 105.562239 
" clip-path="url(#pc545fc796a)" style="fill: none; stroke: #b0b0b0; stroke-width: 0.8; stroke-linecap: square"/>
     </g>
     <g id="line2d_18">
      <g>
       <use xlink:href="#mc751034a91" x="51.32" y="105.562239" style="stroke: #000000; stroke-width: 0.8"/>
      </g>
     </g>
     <g id="text_10">
      <!-- 0.6 -->
      <g transform="translate(28.416875 109.361458) scale(0.1 -0.1)">
       <defs>
        <path id="DejaVuSans-36" d="M 2113 2584 
Q 1688 2584 1439 2293 
Q 1191 2003 1191 1497 
Q 1191 994 1439 701 
Q 1688 409 2113 409 
Q 2538 409 2786 701 
Q 3034 994 3034 1497 
Q 3034 2003 2786 2293 
Q 2538 2584 2113 2584 
z
M 3366 4563 
L 3366 3988 
Q 3128 4100 2886 4159 
Q 2644 4219 2406 4219 
Q 1781 4219 1451 3797 
Q 1122 3375 1075 2522 
Q 1259 2794 1537 2939 
Q 1816 3084 2150 3084 
Q 2853 3084 3261 2657 
Q 3669 2231 3669 1497 
Q 3669 778 3244 343 
Q 2819 -91 2113 -91 
Q 1303 -91 875 529 
Q 447 1150 447 2328 
Q 447 3434 972 4092 
Q 1497 4750 2381 4750 
Q 2619 4750 2861 4703 
Q 3103 4656 3366 4563 
z
" transform="scale(0.015625)"/>
       </defs>
       <use xlink:href="#DejaVuSans-30"/>
       <use xlink:href="#DejaVuSans-2e" x="63.623047"/>
       <use xlink:href="#DejaVuSans-36" x="95.410156"/>
      </g>
     </g>
    </g>
    <g id="ytick_5">
     <g id="line2d_19">
      <path d="M 51.32 63.445665 
L 421.2 63.445665 
" clip-path="url(#pc545fc796a)" style="fill: none; stroke: #b0b0b0; stroke-width: 0.8; stroke-linecap: square"/>
     </g>
     <g id="line2d_20">
      <g>
       <use xlink:href="#mc751034a91" x="51.32" y="63.445665" style="stroke: #000000; stroke-width: 0.8"/>
      </g>
     </g>
     <g id="text_11">
      <!-- 0.8 -->
      <g transform="translate(28.416875 67.244884) scale(0.1 -0.1)">
       <defs>
        <path id="DejaVuSans-38" d="M 2034 2216 
Q 1584 2216 1326 1975 
Q 1069 1734 1069 1313 
Q 1069 891 1326 650 
Q 1584 409 2034 409 
Q 2484 409 2743 651 
Q 3003 894 3003 1313 
Q 3003 1734 2745 1975 
Q 2488 2216 2034 2216 
z
M 1403 2484 
Q 997 2584 770 2862 
Q 544 3141 544 3541 
Q 544 4100 942 4425 
Q 1341 4750 2034 4750 
Q 2731 4750 3128 4425 
Q 3525 4100 3525 3541 
Q 3525 3141 3298 2862 
Q 3072 2584 2669 2484 
Q 3125 2378 3379 2068 
Q 3634 1759 3634 1313 
Q 3634 634 3220 271 
Q 2806 -91 2034 -91 
Q 1263 -91 848 271 
Q 434 634 434 1313 
Q 434 1759 690 2068 
Q 947 2378 1403 2484 
z
M 1172 3481 
Q 1172 3119 1398 2916 
Q 1625 2713 2034 2713 
Q 2441 2713 2670 2916 
Q 2900 3119 2900 3481 
Q 2900 3844 2670 4047 
Q 2441 4250 2034 4250 
Q 1625 4250 1398 4047 
Q 1172 3844 1172 3481 
z
" transform="scale(0.015625)"/>
       </defs>
       <use xlink:href="#DejaVuSans-30"/>
       <use xlink:href="#DejaVuSans-2e" x="63.623047"/>
       <use xlink:href="#DejaVuSans-38" x="95.410156"/>
      </g>
     </g>
    </g>
    <g id="ytick_6">
     <g id="line2d_21">
      <path d="M 51.32 21.329091 
L 421.2 21.329091 
" clip-path="url(#pc545fc796a)" style="fill: none; stroke: #b0b0b0; stroke-width: 0.8; stroke-linecap: square"/>
     </g>
     <g id="line2d_22">
      <g>
       <use xlink:href="#mc751034a91" x="51.32" y="21.329091" style="stroke: #000000; stroke-width: 0.8"/>
      </g>
     </g>
     <g id="text_12">
      <!-- 1.0 -->
      <g transform="translate(28.416875 25.12831) scale(0.1 -0.1)">
       <use xlink:href="#DejaVuSans-31"/>
       <use xlink:href="#DejaVuSans-2e" x="63.623047"/>
       <use xlink:href="#DejaVuSans-30" x="95.410156"/>
      </g>
     </g>
    </g>
    <g id="text_13">
     <!-- P(Normalised response time &lt; 1) -->
     <g transform="translate(21.505313 242.797031) rotate(-90) scale(0.14 -0.14)">
      <defs>
       <path id="DejaVuSans-50" d="M 1259 4147 
L 1259 2394 
L 2053 2394 
Q 2494 2394 2734 2622 
Q 2975 2850 2975 3272 
Q 2975 3691 2734 3919 
Q 2494 4147 2053 4147 
L 1259 4147 
z
M 628 4666 
L 2053 4666 
Q 2838 4666 3239 4311 
Q 3641 3956 3641 3272 
Q 3641 2581 3239 2228 
Q 2838 1875 2053 1875 
L 1259 1875 
L 1259 0 
L 628 0 
L 628 4666 
z
" transform="scale(0.015625)"/>
       <path id="DejaVuSans-28" d="M 1984 4856 
Q 1566 4138 1362 3434 
Q 1159 2731 1159 2009 
Q 1159 1288 1364 580 
Q 1569 -128 1984 -844 
L 1484 -844 
Q 1016 -109 783 600 
Q 550 1309 550 2009 
Q 550 2706 781 3412 
Q 1013 4119 1484 4856 
L 1984 4856 
z
" transform="scale(0.015625)"/>
       <path id="DejaVuSans-3c" d="M 4684 3150 
L 1459 2003 
L 4684 863 
L 4684 294 
L 678 1747 
L 678 2266 
L 4684 3719 
L 4684 3150 
z
" transform="scale(0.015625)"/>
       <path id="DejaVuSans-29" d="M 513 4856 
L 1013 4856 
Q 1481 4119 1714 3412 
Q 1947 2706 1947 2009 
Q 1947 1309 1714 600 
Q 1481 -109 1013 -844 
L 513 -844 
Q 928 -128 1133 580 
Q 1338 1288 1338 2009 
Q 1338 2731 1133 3434 
Q 928 4138 513 4856 
z
" transform="scale(0.015625)"/>
      </defs>
      <use xlink:href="#DejaVuSans-50"/>
      <use xlink:href="#DejaVuSans-28" x="60.302734"/>
      <use xlink:href="#DejaVuSans-4e" x="99.316406"/>
      <use xlink:href="#DejaVuSans-6f" x="174.121094"/>
      <use xlink:href="#DejaVuSans-72" x="235.302734"/>
      <use xlink:href="#DejaVuSans-6d" x="274.666016"/>
      <use xlink:href="#DejaVuSans-61" x="372.078125"/>
      <use xlink:href="#DejaVuSans-6c" x="433.357422"/>
      <use xlink:href="#DejaVuSans-69" x="461.140625"/>
      <use xlink:href="#DejaVuSans-73" x="488.923828"/>
      <use xlink:href="#DejaVuSans-65" x="541.023438"/>
      <use xlink:href="#DejaVuSans-64" x="602.546875"/>
      <use xlink:href="#DejaVuSans-20" x="666.023438"/>
      <use xlink:href="#DejaVuSans-72" x="697.810547"/>
      <use xlink:href="#DejaVuSans-65" x="736.673828"/>
      <use xlink:href="#DejaVuSans-73" x="798.197266"/>
      <use xlink:href="#DejaVuSans-70" x="850.296875"/>
      <use xlink:href="#DejaVuSans-6f" x="913.773438"/>
      <use xlink:href="#DejaVuSans-6e" x="974.955078"/>
      <use xlink:href="#DejaVuSans-73" x="1038.333984"/>
      <use xlink:href="#DejaVuSans-65" x="1090.433594"/>
      <use xlink:href="#DejaVuSans-20" x="1151.957031"/>
      <use xlink:href="#DejaVuSans-74" x="1183.744141"/>
      <use xlink:href="#DejaVuSans-69" x="1222.953125"/>
      <use xlink:href="#DejaVuSans-6d" x="1250.736328"/>
      <use xlink:href="#DejaVuSans-65" x="1348.148438"/>
      <use xlink:href="#DejaVuSans-20" x="1409.671875"/>
      <use xlink:href="#DejaVuSans-3c" x="1441.458984"/>
      <use xlink:href="#DejaVuSans-20" x="1525.248047"/>
      <use xlink:href="#DejaVuSans-31" x="1557.035156"/>
      <use xlink:href="#DejaVuSans-29" x="1620.658203"/>
     </g>
    </g>
   </g>
   <g id="line2d_23">
    <path d="M 68.547836 231.910909 
L 68.65413 231.807723 
L 68.86657 230.418929 
L 68.987224 230.304583 
L 69.125791 229.55554 
L 70.076367 222.792671 
L 70.098425 222.636208 
L 70.244838 221.789875 
L 70.324929 221.238359 
L 70.467049 220.557544 
L 70.50776 220.393079 
L 70.623085 219.791444 
L 70.904956 218.381591 
L 71.038638 217.407856 
L 71.086752 217.11304 
L 71.21614 216.214483 
L 71.425915 214.854749 
L 71.552787 214.088649 
L 71.639539 213.661376 
L 72.694929 210.329324 
L 72.94201 209.292413 
L 73.456603 205.914032 
L 73.748097 204.121972 
L 73.767935 203.954559 
L 73.915533 202.965872 
L 74.184524 201.598979 
L 74.325164 201.013348 
L 74.366616 200.878154 
L 74.89853 197.831651 
L 75.0217 196.435697 
L 76.097964 190.265619 
L 76.200557 189.985965 
L 76.33409 189.251873 
L 76.381908 189.02318 
L 76.563111 188.127782 
L 76.620699 187.928149 
L 76.693091 187.553101 
L 76.819223 186.844279 
L 77.624422 181.912639 
L 77.694593 181.56265 
L 77.818652 180.710211 
L 77.97306 179.751638 
L 78.124655 178.889301 
L 78.36241 177.723935 
L 78.417629 177.308876 
L 78.759606 174.850953 
L 78.808459 174.524129 
L 78.926301 173.684745 
L 79.691084 169.313677 
L 79.873768 167.886767 
L 79.921289 167.575947 
L 80.27881 165.82495 
L 80.379478 165.491176 
L 80.609683 164.218624 
L 80.64773 164.02215 
L 80.815757 162.807719 
L 80.900733 162.321272 
L 81.110508 161.060934 
L 81.143669 160.869303 
L 81.466992 159.464505 
L 81.619771 158.615014 
L 81.666405 158.289242 
L 81.905048 156.478229 
L 82.218748 155.040159 
L 82.263013 154.873799 
L 82.87102 151.524478 
L 83.235795 150.151688 
L 83.40175 149.368531 
L 83.447791 149.060658 
L 83.610933 148.026696 
L 83.653569 147.773155 
L 84.059499 145.68333 
L 84.193181 145.080642 
L 84.381046 143.986664 
L 84.75189 141.919793 
L 84.876541 141.31521 
L 84.955447 140.948164 
L 85.076397 140.481933 
L 85.308379 139.647604 
L 85.453608 138.963631 
L 85.59099 138.466234 
L 85.755317 137.780366 
L 85.837924 137.398368 
L 86.04918 136.406523 
L 86.267837 135.802993 
L 86.486051 135.190196 
L 86.650821 134.651736 
L 86.715071 134.451261 
L 86.834837 133.907747 
L 86.895238 133.66705 
L 87.17326 132.726377 
L 87.644477 131.324527 
L 87.885045 130.039971 
L 88.067284 129.086452 
L 88.205111 128.515772 
L 88.317771 128.162835 
L 88.936881 126.523237 
L 89.125634 125.976775 
L 89.268495 125.496435 
L 89.836975 123.065677 
L 90.010332 122.262514 
L 90.066736 122.046877 
L 90.25845 121.481251 
L 94.263126 107.649116 
L 94.378302 107.377253 
L 94.592371 106.882805 
L 94.736563 106.567983 
L 94.889046 106.196936 
L 94.959662 105.997514 
L 95.0929 105.686483 
L 95.961312 103.574758 
L 96.076637 103.317005 
L 96.230452 103.020294 
L 96.389597 102.70126 
L 97.0093 101.273298 
L 97.164003 100.931522 
L 97.305383 100.612489 
L 97.395244 100.400011 
L 99.46472 95.777085 
L 99.528081 95.613673 
L 100.163328 93.388444 
L 100.264145 93.105841 
L 100.450085 92.572224 
L 100.523514 92.405864 
L 100.672296 92.070827 
L 100.94114 91.639763 
L 101.103245 91.415071 
L 101.290222 91.15437 
L 101.372385 91.013069 
L 102.17107 88.83501 
L 102.448056 87.662695 
L 102.828968 86.394144 
L 102.944144 86.037206 
L 103.123867 85.556867 
L 103.254587 85.231937 
L 103.380275 84.94407 
L 103.544009 84.653466 
L 103.833431 84.049725 
L 104.363568 82.572697 
L 104.423229 82.354954 
L 104.575712 81.827444 
L 104.893261 80.808644 
L 104.95988 80.595113 
L 105.218065 79.868181 
L 105.282315 79.70161 
L 105.764487 78.529506 
L 106.090475 77.87354 
L 106.233779 77.464377 
L 106.652885 75.938283 
L 106.869914 75.038673 
L 106.987015 74.579392 
L 107.240907 73.673886 
L 107.500276 73.112472 
L 108.215761 70.74194 
L 108.356549 70.107033 
L 108.484901 69.625851 
L 108.798454 68.67507 
L 108.885058 68.44048 
L 109.616384 66.248523 
L 109.694698 66.010775 
L 109.83519 65.612563 
L 110.067319 64.931748 
L 110.178943 64.660097 
L 110.528321 63.546955 
L 110.812413 62.869089 
L 111.319752 62.195224 
L 111.507617 61.937471 
L 111.684231 61.656764 
L 112.092678 60.612904 
L 112.19453 60.319984 
L 112.325843 60.022219 
L 112.401789 59.883866 
L 112.66856 59.457647 
L 112.814233 59.200946 
L 112.977227 58.8339 
L 113.144662 58.507918 
L 113.26576 58.281331 
L 113.343778 58.099808 
L 113.477016 57.816996 
L 114.056451 56.834416 
L 114.150161 56.680901 
L 114.27274 56.417251 
L 114.370744 56.249838 
L 114.951807 55.161756 
L 115.104438 54.873889 
L 115.246262 54.655304 
L 115.384385 54.399657 
L 115.446711 54.249301 
L 115.559963 54.025662 
L 117.186201 51.902776 
L 117.36844 51.724201 
L 117.959275 51.074343 
L 118.121677 50.915984 
L 119.051675 49.785786 
L 119.210079 49.607422 
L 119.337395 49.481915 
L 119.518006 49.308605 
L 120.008764 48.656641 
L 120.179456 48.517445 
L 120.293448 48.379935 
L 120.427722 48.259692 
L 122.046706 46.971978 
L 122.299266 46.729386 
L 123.338222 45.926223 
L 123.480194 45.713534 
L 123.677682 45.413664 
L 123.79804 45.259307 
L 123.958665 45.092947 
L 124.158521 44.928482 
L 124.274586 44.87015 
L 124.66971 44.684837 
L 124.86172 44.603552 
L 125.147884 44.442035 
L 125.400888 44.31379 
L 126.044721 43.803337 
L 126.216893 43.676988 
L 126.427853 43.521577 
L 126.638812 43.362166 
L 126.789815 43.226761 
L 127.26799 42.828549 
L 127.805825 42.615018 
L 128.311684 42.353264 
L 128.592371 42.221018 
L 128.731382 42.170688 
L 129.885071 41.500824 
L 130.546966 41.021538 
L 130.690862 40.889291 
L 130.929505 40.688606 
L 131.171257 40.491079 
L 131.285842 40.416954 
L 131.528778 40.260491 
L 131.913539 40.058963 
L 132.046776 40.014741 
L 132.451966 39.86649 
L 138.226185 37.257158 
L 138.372154 37.191035 
L 138.89415 36.968449 
L 139.03775 36.909275 
L 139.501565 36.711748 
L 139.935771 36.508115 
L 140.20728 36.355653 
L 140.329858 36.274368 
L 141.043271 35.985659 
L 141.463117 35.825195 
L 141.640915 35.764126 
L 142.109023 35.628721 
L 142.223756 35.584498 
L 142.510957 35.433089 
L 142.706964 35.25262 
L 143.128883 34.984969 
L 143.258863 34.932744 
L 143.735262 34.768279 
L 143.979234 34.650985 
L 144.229721 34.520634 
L 145.606657 33.76043 
L 145.790969 33.63408 
L 146.183872 33.345371 
L 146.598684 33.154793 
L 146.748058 33.112677 
L 147.310617 32.955371 
L 147.585086 32.854923 
L 148.033653 32.691511 
L 148.708575 32.320464 
L 148.943369 32.213277 
L 149.390307 32.011749 
L 149.611777 31.887295 
L 149.914523 31.735886 
L 154.277016 29.726293 
L 154.649193 29.291229 
L 155.484 28.065637 
L 155.619754 27.908332 
L 157.583528 26.572604 
L 158.35068 26.279894 
L 158.560011 26.20261 
L 159.940056 25.218767 
L 160.255236 24.960171 
L 160.47493 24.797601 
L 160.731783 24.622186 
L 160.882785 24.527002 
L 161.187603 24.337478 
L 161.885176 24.076776 
L 162.29836 23.941371 
L 162.500585 23.892095 
L 165.859059 23.584433 
L 167.384481 23.446923 
L 168.137717 23.406912 
L 169.121307 23.366691 
L 170.798027 23.119045 
L 171.748159 22.306827 
L 173.442496 22.084241 
L 173.642056 22.038966 
L 176.271573 21.914722 
L 187.274181 21.725197 
L 210.782909 21.513562 
L 235.3075 21.423432 
L 404.387273 21.329091 
L 404.387273 21.329091 
" clip-path="url(#pc545fc796a)" style="fill: none; stroke: #ff0000; stroke-width: 3; stroke-linecap: square"/>
   </g>
   <g id="line2d_24">
    <path d="M 68.132727 231.87869 
L 68.290392 231.058259 
L 68.383362 230.791029 
L 68.501943 229.732429 
L 68.903432 226.1561 
L 68.945624 226.026592 
L 69.114984 224.804369 
L 69.132897 224.601156 
L 69.260361 223.454112 
L 69.625136 219.42166 
L 69.743865 218.37738 
L 70.05727 215.93146 
L 70.141357 215.533037 
L 70.283477 214.514869 
L 70.328778 214.050955 
L 70.510573 212.390719 
L 70.628859 211.195451 
L 70.649881 210.92043 
L 75.042278 175.909764 
L 75.45191 172.938018 
L 75.672788 171.223453 
L 76.26836 167.193318 
L 76.474138 165.914237 
L 76.505374 165.678806 
L 76.634319 164.609887 
L 76.679175 164.30391 
L 76.79376 163.364921 
L 76.833879 162.917432 
L 77.011233 161.501684 
L 77.083033 160.962381 
L 77.204427 159.795541 
L 77.389035 158.229647 
L 80.190725 141.650037 
L 80.332253 140.651453 
L 81.708448 133.236409 
L 82.042875 131.018129 
L 82.788117 126.745402 
L 82.936899 125.933605 
L 82.998336 125.698805 
L 83.214921 124.277371 
L 84.144919 119.62749 
L 84.304064 118.935094 
L 84.463357 118.179312 
L 84.644856 117.191889 
L 84.789937 116.464746 
L 84.850486 116.186356 
L 85.058484 115.22673 
L 85.119478 114.990245 
L 85.250939 114.546758 
L 85.313116 114.348388 
L 85.506459 113.708217 
L 85.733999 112.915161 
L 85.935928 112.211604 
L 86.349112 110.502514 
L 86.514327 109.70651 
L 86.633796 109.129303 
L 86.683094 108.914297 
L 86.739646 108.64075 
L 87.39251 105.380717 
L 87.517161 104.763288 
L 87.922647 103.238457 
L 88.314662 101.788594 
L 89.256355 97.46596 
L 89.359392 97.126921 
L 89.509951 96.681749 
L 89.568723 96.457268 
L 89.775389 95.511119 
L 90.33706 92.955275 
L 90.414041 92.700048 
L 90.575259 92.133159 
L 92.009339 87.718921 
L 92.158269 87.290385 
L 92.35931 86.812993 
L 92.667828 86.182087 
L 92.80832 85.844523 
L 92.945851 85.561499 
L 93.116099 85.232569 
L 93.185382 85.060312 
L 93.466513 84.223245 
L 93.582134 83.923586 
L 93.852606 83.172647 
L 94.14795 82.133842 
L 94.75951 80.061075 
L 94.949003 79.226956 
L 94.984533 79.069019 
L 95.14427 78.415159 
L 95.379509 77.717919 
L 97.195684 72.885463 
L 97.284213 72.698887 
L 99.487518 66.168291 
L 99.634227 65.76671 
L 100.310038 63.369224 
L 100.639727 62.507518 
L 100.771632 62.184905 
L 100.964382 61.721623 
L 101.04773 61.526413 
L 101.263722 61.014907 
L 101.348254 60.858444 
L 101.508139 60.588056 
L 101.627905 60.381053 
L 101.783349 60.131091 
L 101.877503 59.980103 
L 102.059003 59.689288 
L 102.172551 59.486075 
L 103.375093 56.967504 
L 103.565919 56.522332 
L 103.853712 55.920065 
L 104.452245 54.550013 
L 104.515755 54.392707 
L 104.713242 53.952379 
L 105.089268 53.313681 
L 105.213771 53.069405 
L 106.171009 50.681184 
L 106.696557 49.919927 
L 106.791156 49.774415 
L 106.951781 49.525506 
L 107.042975 49.388627 
L 107.193829 49.1911 
L 107.361413 48.98873 
L 107.578294 48.699389 
L 107.674669 48.562721 
L 110.314253 44.615555 
L 110.471177 44.362645 
L 111.597182 43.24803 
L 111.735305 43.088198 
L 113.176195 41.231278 
L 114.431145 40.068439 
L 114.616197 39.871544 
L 114.748546 39.734876 
L 115.011912 39.424898 
L 115.173574 39.216211 
L 115.276611 39.069224 
L 116.282554 37.830575 
L 116.404837 37.675586 
L 117.090122 36.890533 
L 117.279171 36.73407 
L 117.414629 36.605194 
L 117.739729 36.335647 
L 119.067663 35.255779 
L 119.189057 35.130061 
L 119.435547 34.861989 
L 119.586549 34.702367 
L 119.948067 34.309419 
L 120.100994 34.139479 
L 120.34852 33.886569 
L 120.563773 33.712627 
L 120.869479 33.526051 
L 122.53628 32.729205 
L 122.72681 32.599486 
L 122.880773 32.467661 
L 123.340147 32.112619 
L 123.895451 31.700718 
L 124.383397 31.31093 
L 124.629442 31.176578 
L 125.280086 30.817744 
L 125.85508 30.573468 
L 125.997052 30.504608 
L 132.574101 27.814622 
L 133.173226 27.666793 
L 135.777575 27.060314 
L 135.933315 26.986821 
L 136.746212 26.774975 
L 137.080046 26.671368 
L 138.342546 26.454889 
L 138.550841 26.403506 
L 139.549382 26.129117 
L 140.269013 25.631931 
L 140.460727 25.46915 
L 140.699962 25.25962 
L 140.856887 25.19076 
L 141.256007 25.046089 
L 141.374588 25.004183 
L 143.159527 24.634189 
L 144.172133 24.473093 
L 145.798963 24.287148 
L 146.775446 24.15048 
L 146.921415 24.122052 
L 151.201745 23.074612 
L 151.846319 22.94721 
L 152.09947 22.853921 
L 158.818195 22.167842 
L 160.501134 22.033491 
L 163.382025 21.850915 
L 166.158104 21.669814 
L 167.367604 21.612114 
L 178.139416 21.402584 
L 215.926175 21.329091 
L 215.926175 21.329091 
" clip-path="url(#pc545fc796a)" style="fill: none; stroke: #0000ff; stroke-width: 3; stroke-linecap: square"/>
   </g>
   <g id="line2d_25">
    <path d="M 404.387273 242.44 
L 404.387273 10.8 
" clip-path="url(#pc545fc796a)" style="fill: none; stroke-dasharray: 7.4,3.2; stroke-dashoffset: 0; stroke: #ff0000; stroke-opacity: 0.7; stroke-width: 2"/>
   </g>
   <g id="line2d_26">
    <path d="M 215.926175 242.44 
L 215.926175 10.8 
" clip-path="url(#pc545fc796a)" style="fill: none; stroke-dasharray: 7.4,3.2; stroke-dashoffset: 0; stroke: #0000ff; stroke-opacity: 0.7; stroke-width: 2"/>
   </g>
   <g id="patch_3">
    <path d="M 51.32 242.44 
L 51.32 10.8 
" style="fill: none; stroke: #000000; stroke-width: 0.8; stroke-linejoin: miter; stroke-linecap: square"/>
   </g>
   <g id="patch_4">
    <path d="M 421.2 242.44 
L 421.2 10.8 
" style="fill: none; stroke: #000000; stroke-width: 0.8; stroke-linejoin: miter; stroke-linecap: square"/>
   </g>
   <g id="patch_5">
    <path d="M 51.32 242.44 
L 421.2 242.44 
" style="fill: none; stroke: #000000; stroke-width: 0.8; stroke-linejoin: miter; stroke-linecap: square"/>
   </g>
   <g id="patch_6">
    <path d="M 51.32 10.8 
L 421.2 10.8 
" style="fill: none; stroke: #000000; stroke-width: 0.8; stroke-linejoin: miter; stroke-linecap: square"/>
   </g>
   <g id="text_14">
    <!-- 2.2729 -->
    <g style="fill: #ff0000" transform="translate(354.726744 38.175721) scale(0.14 -0.14)">
     <defs>
      <path id="DejaVuSans-37" d="M 525 4666 
L 3525 4666 
L 3525 4397 
L 1831 0 
L 1172 0 
L 2766 4134 
L 525 4134 
L 525 4666 
z
" transform="scale(0.015625)"/>
      <path id="DejaVuSans-39" d="M 703 97 
L 703 672 
Q 941 559 1184 500 
Q 1428 441 1663 441 
Q 2288 441 2617 861 
Q 2947 1281 2994 2138 
Q 2813 1869 2534 1725 
Q 2256 1581 1919 1581 
Q 1219 1581 811 2004 
Q 403 2428 403 3163 
Q 403 3881 828 4315 
Q 1253 4750 1959 4750 
Q 2769 4750 3195 4129 
Q 3622 3509 3622 2328 
Q 3622 1225 3098 567 
Q 2575 -91 1691 -91 
Q 1453 -91 1209 -44 
Q 966 3 703 97 
z
M 1959 2075 
Q 2384 2075 2632 2365 
Q 2881 2656 2881 3163 
Q 2881 3666 2632 3958 
Q 2384 4250 1959 4250 
Q 1534 4250 1286 3958 
Q 1038 3666 1038 3163 
Q 1038 2656 1286 2365 
Q 1534 2075 1959 2075 
z
" transform="scale(0.015625)"/>
     </defs>
     <use xlink:href="#DejaVuSans-32"/>
     <use xlink:href="#DejaVuSans-2e" x="63.623047"/>
     <use xlink:href="#DejaVuSans-32" x="95.410156"/>
     <use xlink:href="#DejaVuSans-37" x="159.033203"/>
     <use xlink:href="#DejaVuSans-32" x="222.65625"/>
     <use xlink:href="#DejaVuSans-39" x="286.279297"/>
    </g>
   </g>
   <g id="text_15">
    <!-- 0.9998 -->
    <g style="fill: #0000ff" transform="translate(166.265646 38.175721) scale(0.14 -0.14)">
     <use xlink:href="#DejaVuSans-30"/>
     <use xlink:href="#DejaVuSans-2e" x="63.623047"/>
     <use xlink:href="#DejaVuSans-39" x="95.410156"/>
     <use xlink:href="#DejaVuSans-39" x="159.033203"/>
     <use xlink:href="#DejaVuSans-39" x="222.65625"/>
     <use xlink:href="#DejaVuSans-38" x="286.279297"/>
    </g>
   </g>
   <g id="PathCollection_1">
    <defs>
     <path id="m7a4d5bccbb" d="M 0 5 
C 1.326016 5 2.597899 4.473168 3.535534 3.535534 
C 4.473168 2.597899 5 1.326016 5 0 
C 5 -1.326016 4.473168 -2.597899 3.535534 -3.535534 
C 2.597899 -4.473168 1.326016 -5 0 -5 
C -1.326016 -5 -2.597899 -4.473168 -3.535534 -3.535534 
C -4.473168 -2.597899 -5 -1.326016 -5 0 
C -5 1.326016 -4.473168 2.597899 -3.535534 3.535534 
C -2.597899 4.473168 -1.326016 5 0 5 
z
" style="stroke: #ff0000"/>
    </defs>
    <g clip-path="url(#pc545fc796a)">
     <use xlink:href="#m7a4d5bccbb" x="404.387273" y="21.329091" style="fill: #ff0000; stroke: #ff0000"/>
    </g>
   </g>
   <g id="PathCollection_2">
    <defs>
     <path id="mc61bf3bcab" d="M 0 5 
C 1.326016 5 2.597899 4.473168 3.535534 3.535534 
C 4.473168 2.597899 5 1.326016 5 0 
C 5 -1.326016 4.473168 -2.597899 3.535534 -3.535534 
C 2.597899 -4.473168 1.326016 -5 0 -5 
C -1.326016 -5 -2.597899 -4.473168 -3.535534 -3.535534 
C -4.473168 -2.597899 -5 -1.326016 -5 0 
C -5 1.326016 -4.473168 2.597899 -3.535534 3.535534 
C -2.597899 4.473168 -1.326016 5 0 5 
z
" style="stroke: #0000ff"/>
    </defs>
    <g clip-path="url(#pc545fc796a)">
     <use xlink:href="#mc61bf3bcab" x="215.926175" y="21.329091" style="fill: #0000ff; stroke: #0000ff"/>
    </g>
   </g>
   <g id="legend_1">
    <g id="patch_7">
     <path d="M 269.617188 235.44 
L 411.4 235.44 
Q 414.2 235.44 414.2 232.64 
L 414.2 192.94125 
Q 414.2 190.14125 411.4 190.14125 
L 269.617188 190.14125 
Q 266.817187 190.14125 266.817187 192.94125 
L 266.817187 232.64 
Q 266.817187 235.44 269.617188 235.44 
z
" style="fill: #ffffff; opacity: 0.8; stroke: #cccccc; stroke-linejoin: miter"/>
    </g>
    <g id="line2d_27">
     <path d="M 272.417188 201.479062 
L 286.417188 201.479062 
L 300.417188 201.479062 
" style="fill: none; stroke: #ff0000; stroke-width: 3; stroke-linecap: square"/>
    </g>
    <g id="text_16">
     <!-- Vanilla -->
     <g transform="translate(311.617188 206.379063) scale(0.14 -0.14)">
      <defs>
       <path id="DejaVuSans-56" d="M 1831 0 
L 50 4666 
L 709 4666 
L 2188 738 
L 3669 4666 
L 4325 4666 
L 2547 0 
L 1831 0 
z
" transform="scale(0.015625)"/>
      </defs>
      <use xlink:href="#DejaVuSans-56"/>
      <use xlink:href="#DejaVuSans-61" x="60.658203"/>
      <use xlink:href="#DejaVuSans-6e" x="121.9375"/>
      <use xlink:href="#DejaVuSans-69" x="185.316406"/>
      <use xlink:href="#DejaVuSans-6c" x="213.099609"/>
      <use xlink:href="#DejaVuSans-6c" x="240.882812"/>
      <use xlink:href="#DejaVuSans-61" x="268.666016"/>
     </g>
    </g>
    <g id="line2d_28">
     <path d="M 272.417188 222.028437 
L 286.417188 222.028437 
L 300.417188 222.028437 
" style="fill: none; stroke: #0000ff; stroke-width: 3; stroke-linecap: square"/>
    </g>
    <g id="text_17">
     <!-- KubeDeadline -->
     <g transform="translate(311.617188 226.928438) scale(0.14 -0.14)">
      <defs>
       <path id="DejaVuSans-4b" d="M 628 4666 
L 1259 4666 
L 1259 2694 
L 3353 4666 
L 4166 4666 
L 1850 2491 
L 4331 0 
L 3500 0 
L 1259 2247 
L 1259 0 
L 628 0 
L 628 4666 
z
" transform="scale(0.015625)"/>
       <path id="DejaVuSans-75" d="M 544 1381 
L 544 3500 
L 1119 3500 
L 1119 1403 
Q 1119 906 1312 657 
Q 1506 409 1894 409 
Q 2359 409 2629 706 
Q 2900 1003 2900 1516 
L 2900 3500 
L 3475 3500 
L 3475 0 
L 2900 0 
L 2900 538 
Q 2691 219 2414 64 
Q 2138 -91 1772 -91 
Q 1169 -91 856 284 
Q 544 659 544 1381 
z
M 1991 3584 
L 1991 3584 
z
" transform="scale(0.015625)"/>
       <path id="DejaVuSans-62" d="M 3116 1747 
Q 3116 2381 2855 2742 
Q 2594 3103 2138 3103 
Q 1681 3103 1420 2742 
Q 1159 2381 1159 1747 
Q 1159 1113 1420 752 
Q 1681 391 2138 391 
Q 2594 391 2855 752 
Q 3116 1113 3116 1747 
z
M 1159 2969 
Q 1341 3281 1617 3432 
Q 1894 3584 2278 3584 
Q 2916 3584 3314 3078 
Q 3713 2572 3713 1747 
Q 3713 922 3314 415 
Q 2916 -91 2278 -91 
Q 1894 -91 1617 61 
Q 1341 213 1159 525 
L 1159 0 
L 581 0 
L 581 4863 
L 1159 4863 
L 1159 2969 
z
" transform="scale(0.015625)"/>
       <path id="DejaVuSans-44" d="M 1259 4147 
L 1259 519 
L 2022 519 
Q 2988 519 3436 956 
Q 3884 1394 3884 2338 
Q 3884 3275 3436 3711 
Q 2988 4147 2022 4147 
L 1259 4147 
z
M 628 4666 
L 1925 4666 
Q 3281 4666 3915 4102 
Q 4550 3538 4550 2338 
Q 4550 1131 3912 565 
Q 3275 0 1925 0 
L 628 0 
L 628 4666 
z
" transform="scale(0.015625)"/>
      </defs>
      <use xlink:href="#DejaVuSans-4b"/>
      <use xlink:href="#DejaVuSans-75" x="60.576172"/>
      <use xlink:href="#DejaVuSans-62" x="123.955078"/>
      <use xlink:href="#DejaVuSans-65" x="187.431641"/>
      <use xlink:href="#DejaVuSans-44" x="248.955078"/>
      <use xlink:href="#DejaVuSans-65" x="325.957031"/>
      <use xlink:href="#DejaVuSans-61" x="387.480469"/>
      <use xlink:href="#DejaVuSans-64" x="448.759766"/>
      <use xlink:href="#DejaVuSans-6c" x="512.236328"/>
      <use xlink:href="#DejaVuSans-69" x="540.019531"/>
      <use xlink:href="#DejaVuSans-6e" x="567.802734"/>
      <use xlink:href="#DejaVuSans-65" x="631.181641"/>
     </g>
    </g>
   </g>
  </g>
 </g>
 <defs>
  <clipPath id="pc545fc796a">
   <rect x="51.32" y="10.8" width="369.88" height="231.64"/>
  </clipPath>
 </defs>
</svg>
